<svg xmlns="http://www.w3.org/2000/svg" viewBox="0 0 224.34 45.03"><div xmlns=""/><defs><style>.cls-1{fill:#00cc75;}</style></defs><g id="Capa_2" data-name="Capa 2"><g id="Capa_1-2" data-name="Capa 1"><path class="cls-1" d="M36.86,12.49,25.66,1.29a4.42,4.42,0,0,0-6.24,0L1.27,19.44a4.36,4.36,0,0,0,0,6.15l3.19,3.18s0,0,0,0a6.81,6.81,0,0,1,2-4.11c.14-.13.4-.41.4-.41l4.81-4.8a6.81,6.81,0,0,1,9.63,0l4.31,4.3a4.29,4.29,0,0,0,6.09,0l5.19-5.19A4.29,4.29,0,0,0,36.86,12.49Zm-9.69,4.24A2.65,2.65,0,0,1,25.29,16l-3.17-3.17A2.71,2.71,0,0,1,22.06,9a2.66,2.66,0,0,1,3.76,0L29,12.13A2.73,2.73,0,0,1,29.05,16,2.65,2.65,0,0,1,27.17,16.73Z"/><path class="cls-1" d="M43.81,19.44l-3.2-3.19a6.81,6.81,0,0,1-2,4.12c-.14.13-.4.4-.4.4l-4.8,4.81a6.82,6.82,0,0,1-9.64,0L19.5,21.27a4.31,4.31,0,0,0-6.09,0l-5.19,5.2a4.27,4.27,0,0,0,0,6.06l11.2,11.21a4.43,4.43,0,0,0,6.25,0L43.81,25.59A4.35,4.35,0,0,0,43.81,19.44ZM21.14,36.84a2.65,2.65,0,0,1-1.88-.78L16.1,32.9A2.71,2.71,0,0,1,16,29.09a2.64,2.64,0,0,1,3.76,0L23,32.25A2.71,2.71,0,0,1,23,36.06,2.66,2.66,0,0,1,21.14,36.84Z"/><path class="cls-1" d="M58,11.24h9.43a6.56,6.56,0,0,1,5.14,1.9,7.13,7.13,0,0,1,1.74,5,7.29,7.29,0,0,1-.85,3.6A6.17,6.17,0,0,1,71,24.19a7.64,7.64,0,0,1-3.71.86H62.17v6.3H58V11.24Zm8.43,10.48a3.64,3.64,0,0,0,2.7-.93A3.48,3.48,0,0,0,70,18.2a3.77,3.77,0,0,0-.89-2.67,3.45,3.45,0,0,0-2.63-.93H62.13v7.12Z"/><path class="cls-1" d="M76.63,16.54h3.91l.19,1.54a13.43,13.43,0,0,1,2.51-1.16,13.93,13.93,0,0,1,2.91-.69V19.4a23.68,23.68,0,0,0-2.87.62,11.88,11.88,0,0,0-2.39,1V31.31H76.67l0-14.77Z"/><path class="cls-1" d="M89.05,29.72a7.36,7.36,0,0,1-2.21-5.8,7.78,7.78,0,0,1,1.93-5.64,7.39,7.39,0,0,1,5.61-2.05A7.19,7.19,0,0,1,99.6,18a6.16,6.16,0,0,1,1.86,4.72v2.7H90.75a3.11,3.11,0,0,0,1.58,2.4,8,8,0,0,0,3.71.7,13.17,13.17,0,0,0,2.44-.24,9.83,9.83,0,0,0,2.09-.58v3a13.24,13.24,0,0,1-5.42.93A9,9,0,0,1,89.05,29.72Zm8.73-6.88V22c0-1.82-1.08-2.75-3.28-2.75a4.14,4.14,0,0,0-2.9.82,3.63,3.63,0,0,0-.85,2.74Z"/><path class="cls-1" d="M106.48,31.46a11.74,11.74,0,0,1-2.43-.58V27.4a9.49,9.49,0,0,0,2.4.66,15,15,0,0,0,2.59.23,9.25,9.25,0,0,0,2.24-.19.83.83,0,0,0,.62-.81,1,1,0,0,0-.58-.89,16.27,16.27,0,0,0-2.17-.81,12.19,12.19,0,0,1-1.2-.39,8.17,8.17,0,0,1-3.21-1.7,3.69,3.69,0,0,1-1-2.82,3.84,3.84,0,0,1,1.58-3.29,8.73,8.73,0,0,1,5-1.12,17.38,17.38,0,0,1,2.52.19,13,13,0,0,1,2.12.5v3.48a8.1,8.1,0,0,0-1.89-.58,10.45,10.45,0,0,0-2-.23,10,10,0,0,0-2.2.19.83.83,0,0,0-.74.82.89.89,0,0,0,.5.81,11.51,11.51,0,0,0,2,.7l1,.3a14.73,14.73,0,0,1,2.78,1.16,3.39,3.39,0,0,1,1.4,1.47,5.05,5.05,0,0,1,.42,2.17,3.81,3.81,0,0,1-1.66,3.36,8.58,8.58,0,0,1-4.91,1.12C108.53,31.66,107.49,31.58,106.48,31.46Z"/><path class="cls-1" d="M120.25,30.34A5,5,0,0,1,119,26.67V13.37l4.22-1.24v4.45H127l-.23,3.24h-3.48V26.4a2.19,2.19,0,0,0,.54,1.66,2.77,2.77,0,0,0,1.78.47,6.2,6.2,0,0,0,1.81-.31v2.9a8.76,8.76,0,0,1-3.32.58A5.1,5.1,0,0,1,120.25,30.34Z"/><path class="cls-1" d="M130.77,30.46a4.09,4.09,0,0,1-1.51-3.4,4.33,4.33,0,0,1,1.59-3.52,7,7,0,0,1,4.52-1.32h4.37v-.38a2.66,2.66,0,0,0-.35-1.47,2,2,0,0,0-1.16-.78,9.46,9.46,0,0,0-2.36-.23,15.76,15.76,0,0,0-4.87.77v-3a12.86,12.86,0,0,1,2.59-.7,21,21,0,0,1,3.17-.23c4.68,0,7,1.89,7,5.72v9.4h-3.67L139.85,30c-1.19,1.13-3,1.67-5.37,1.67A5.78,5.78,0,0,1,130.77,30.46Zm7.31-2a4.62,4.62,0,0,0,1.66-1.2V24.93h-4.29c-1.67,0-2.48.7-2.48,2.05s.89,2,2.71,2A7.63,7.63,0,0,0,138.08,28.45Z"/><path class="cls-1" d="M147.2,16.54h3.91l.15,1.43a8.22,8.22,0,0,1,5.07-1.74,5,5,0,0,1,2.36.46A3.06,3.06,0,0,1,160,18.05a8.89,8.89,0,0,1,2.44-1.36,9.18,9.18,0,0,1,3.05-.46,4.9,4.9,0,0,1,3.79,1.31,5.88,5.88,0,0,1,1.24,4.06v9.75h-4.14V22.07A2.84,2.84,0,0,0,165.8,20a2.7,2.7,0,0,0-2-.66,4.35,4.35,0,0,0-1.7.35,5,5,0,0,0-1.43,1,4.25,4.25,0,0,1,.15,1.27v9.4h-3.94V22a3.38,3.38,0,0,0-.5-2.09,2.19,2.19,0,0,0-1.78-.66,4.9,4.9,0,0,0-3.25,1.59V31.31H147.2V16.54Z"/><path class="cls-1" d="M173.73,36.34v-3a6.19,6.19,0,0,0,1.89.31,3.15,3.15,0,0,0,2-.58,5.27,5.27,0,0,0,1.58-1.78L172.45,16.5h4.41l4.33,10.05,4.29-10h4.37L184,30.27a15.37,15.37,0,0,1-3,4.91,5.59,5.59,0,0,1-4.14,1.62A7.61,7.61,0,0,1,173.73,36.34Z"/><path class="cls-1" d="M191.94,16.54h3.67l.24,1.35A7,7,0,0,1,198,16.62a7.9,7.9,0,0,1,2.71-.43A6.69,6.69,0,0,1,205.78,18c1.16,1.2,1.71,3.09,1.71,5.72s-.62,4.6-1.86,5.92a6.75,6.75,0,0,1-5.18,2,7.9,7.9,0,0,1-4.26-1.12V38H192l0-21.5ZM202.19,27.4a5.68,5.68,0,0,0,1-3.59,5.46,5.46,0,0,0-.88-3.44,3.46,3.46,0,0,0-2.83-1.05,4.68,4.68,0,0,0-3.32,1.36v6.76a4.88,4.88,0,0,0,1.47.85,4.68,4.68,0,0,0,1.74.27A3.45,3.45,0,0,0,202.19,27.4Z"/><path class="cls-1" d="M211.93,29.72a7.36,7.36,0,0,1-2.2-5.8,7.78,7.78,0,0,1,1.93-5.64,7.31,7.31,0,0,1,5.61-2.05A7.19,7.19,0,0,1,222.49,18a6.15,6.15,0,0,1,1.85,4.72v2.7H213.63a3.14,3.14,0,0,0,1.59,2.4,8,8,0,0,0,3.71.7,13.25,13.25,0,0,0,2.44-.24,10.56,10.56,0,0,0,2.09-.58v3a13.27,13.27,0,0,1-5.42.93A9,9,0,0,1,211.93,29.72Zm8.74-6.88V22c0-1.82-1.08-2.75-3.29-2.75a4.15,4.15,0,0,0-2.9.82,3.63,3.63,0,0,0-.85,2.74Z"/></g></g></svg>